HIERARCHY
ROOT Hips
{
    OFFSET   0.000000   0.000000   0.000000
    CHANNELS 6 Xposition Yposition Zposition Zrotation Xrotation Yrotation
    JOINT Chest
    {
        OFFSET   0.000000   8.007240   0.000000
        CHANNELS 3 Zrotation Xrotation Yrotation
        JOINT Chest2
        {
            OFFSET   0.000000  22.077100   0.000000
            CHANNELS 3 Zrotation Xrotation Yrotation
            JOINT Neck
            {
                OFFSET   0.000000  23.254800   0.000000
                CHANNELS 3 Zrotation Xrotation Yrotation
                JOINT Head
                {
                    OFFSET   0.000000  14.370000   1.956600
                    CHANNELS 3 Zrotation Xrotation Yrotation
                    End Site
                    {
                        OFFSET   0.000000  19.566000   0.000000
                    }
                }
            }
            JOINT LeftCollar
            {
                OFFSET   3.911900  19.017000  -0.467064
                CHANNELS 3 Zrotation Xrotation Yrotation
                JOINT LeftShoulder
                {
                    OFFSET  10.383700   0.000000   0.000000
                    CHANNELS 3 Zrotation Xrotation Yrotation
                    JOINT LeftElbow
                    {
                        OFFSET  26.662100   0.001476   0.000517
                        CHANNELS 3 Zrotation Xrotation Yrotation
                        JOINT LeftWrist
                        {
                            OFFSET  28.869000  -0.000025  -0.000106
                            CHANNELS 3 Zrotation Xrotation Yrotation
                            JOINT LeftFinger0
                            {
                                OFFSET   2.044660  -2.323460   3.252850
                                CHANNELS 3 Zrotation Xrotation Yrotation
                                JOINT LeftFinger01
                                {
                                    OFFSET   3.088130   0.000000   0.000000
                                    CHANNELS 3 Zrotation Xrotation Yrotation
                                    JOINT LeftFinger02
                                    {
                                        OFFSET   2.639460   0.000000   0.000000
                                        CHANNELS 3 Zrotation Xrotation Yrotation
                                        End Site
                                        {
                                            OFFSET   2.582190   0.000000   0.000000
                                        }
                                    }
                                }
                            }
                            JOINT LeftFinger1
                            {
                                OFFSET   8.364480   0.000000   3.252850
                                CHANNELS 3 Zrotation Xrotation Yrotation
                                JOINT LeftFinger11
                                {
                                    OFFSET   4.646930   0.000000   0.000000
                                    CHANNELS 3 Zrotation Xrotation Yrotation
                                    JOINT LeftFinger12
                                    {
                                        OFFSET   2.323460   0.000000   0.000000
                                        CHANNELS 3 Zrotation Xrotation Yrotation
                                        End Site
                                        {
                                            OFFSET   2.273050   0.000000   0.000000
                                        }
                                    }
                                }
                            }
                            JOINT LeftFinger2
                            {
                                OFFSET   8.364490   0.000015   1.078090
                                CHANNELS 3 Zrotation Xrotation Yrotation
                                JOINT LeftFinger21
                                {
                                    OFFSET   5.111620   0.000000   0.000000
                                    CHANNELS 3 Zrotation Xrotation Yrotation
                                    JOINT LeftFinger22
                                    {
                                        OFFSET   2.788160   0.000016   0.000000
                                        CHANNELS 3 Zrotation Xrotation Yrotation
                                        End Site
                                        {
                                            OFFSET   2.727660   0.000000   0.000000
                                        }
                                    }
                                }
                            }
                            JOINT LeftFinger3
                            {
                                OFFSET   7.899780   0.000017  -1.078090
                                CHANNELS 3 Zrotation Xrotation Yrotation
                                JOINT LeftFinger31
                                {
                                    OFFSET   4.646930   0.000000   0.000000
                                    CHANNELS 3 Zrotation Xrotation Yrotation
                                    JOINT LeftFinger32
                                    {
                                        OFFSET   2.323470   0.000000   0.000000
                                        CHANNELS 3 Zrotation Xrotation Yrotation
                                        End Site
                                        {
                                            OFFSET   2.273050   0.000000   0.000000
                                        }
                                    }
                                }
                            }
                            JOINT LeftFinger4
                            {
                                OFFSET   7.435090   0.000000  -3.252850
                                CHANNELS 3 Zrotation Xrotation Yrotation
                                JOINT LeftFinger41
                                {
                                    OFFSET   3.717550   0.000000   0.000000
                                    CHANNELS 3 Zrotation Xrotation Yrotation
                                    JOINT LeftFinger42
                                    {
                                        OFFSET   1.858770   0.000000   0.000000
                                        CHANNELS 3 Zrotation Xrotation Yrotation
                                        End Site
                                        {
                                            OFFSET   1.818440   0.000000   0.000000
                                        }
                                    }
                                }
                            }
                        }
                    }
                }
            }
            JOINT RightCollar
            {
                OFFSET  -3.911900  19.017000  -0.467063
                CHANNELS 3 Zrotation Xrotation Yrotation
                JOINT RightShoulder
                {
                    OFFSET -10.383700   0.000019   0.000000
                    CHANNELS 3 Zrotation Xrotation Yrotation
                    JOINT RightElbow
                    {
                        OFFSET -26.662100   0.001175   0.000102
                        CHANNELS 3 Zrotation Xrotation Yrotation
                        JOINT RightWrist
                        {
                            OFFSET -28.869000   0.000016  -0.000079
                            CHANNELS 3 Zrotation Xrotation Yrotation
                            JOINT RightFinger0
                            {
                                OFFSET  -2.044660  -2.323490   3.252850
                                CHANNELS 3 Zrotation Xrotation Yrotation
                                JOINT RightFinger01
                                {
                                    OFFSET  -3.088140   0.000000   0.000000
                                    CHANNELS 3 Zrotation Xrotation Yrotation
                                    JOINT RightFinger02
                                    {
                                        OFFSET  -2.639460   0.000000   0.000000
                                        CHANNELS 3 Zrotation Xrotation Yrotation
                                        End Site
                                        {
                                            OFFSET  -2.582190   0.000000   0.000000
                                        }
                                    }
                                }
                            }
                            JOINT RightFinger1
                            {
                                OFFSET  -8.364480   0.000000   3.252850
                                CHANNELS 3 Zrotation Xrotation Yrotation
                                JOINT RightFinger11
                                {
                                    OFFSET  -4.646930   0.000000   0.000000
                                    CHANNELS 3 Zrotation Xrotation Yrotation
                                    JOINT RightFinger12
                                    {
                                        OFFSET  -2.323470   0.000000   0.000000
                                        CHANNELS 3 Zrotation Xrotation Yrotation
                                        End Site
                                        {
                                            OFFSET  -2.273050   0.000000   0.000000
                                        }
                                    }
                                }
                            }
                            JOINT RightFinger2
                            {
                                OFFSET  -8.364480   0.000000   1.078090
                                CHANNELS 3 Zrotation Xrotation Yrotation
                                JOINT RightFinger21
                                {
                                    OFFSET  -5.111620   0.000000   0.000000
                                    CHANNELS 3 Zrotation Xrotation Yrotation
                                    JOINT RightFinger22
                                    {
                                        OFFSET  -2.788160   0.000000   0.000000
                                        CHANNELS 3 Zrotation Xrotation Yrotation
                                        End Site
                                        {
                                            OFFSET  -2.727660   0.000000   0.000000
                                        }
                                    }
                                }
                            }
                            JOINT RightFinger3
                            {
                                OFFSET  -7.899780   0.000000  -1.078090
                                CHANNELS 3 Zrotation Xrotation Yrotation
                                JOINT RightFinger31
                                {
                                    OFFSET  -4.646930   0.000000   0.000000
                                    CHANNELS 3 Zrotation Xrotation Yrotation
                                    JOINT RightFinger32
                                    {
                                        OFFSET  -2.323470   0.000000   0.000000
                                        CHANNELS 3 Zrotation Xrotation Yrotation
                                        End Site
                                        {
                                            OFFSET  -2.273050   0.000000   0.000000
                                        }
                                    }
                                }
                            }
                            JOINT RightFinger4
                            {
                                OFFSET  -7.435090   0.000000  -3.252850
                                CHANNELS 3 Zrotation Xrotation Yrotation
                                JOINT RightFinger41
                                {
                                    OFFSET  -3.717550   0.000000   0.000000
                                    CHANNELS 3 Zrotation Xrotation Yrotation
                                    JOINT RightFinger42
                                    {
                                        OFFSET  -1.858770   0.000000   0.000000
                                        CHANNELS 3 Zrotation Xrotation Yrotation
                                        End Site
                                        {
                                            OFFSET  -1.818440   0.000000   0.000000
                                        }
                                    }
                                }
                            }
                        }
                    }
                }
            }
        }
    }
    JOINT LeftHip
    {
        OFFSET   9.783040   0.000000   0.000000
        CHANNELS 3 Zrotation Xrotation Yrotation
        JOINT LeftKnee
        {
            OFFSET   0.000032 -41.789100  -0.002222
            CHANNELS 3 Zrotation Xrotation Yrotation
            JOINT LeftAnkle
            {
                OFFSET   0.000087 -41.133200  -0.000135
                CHANNELS 3 Zrotation Xrotation Yrotation
                JOINT LeftToe
                {
                    OFFSET   0.000000  -6.358960  14.674500
                    CHANNELS 3 Zrotation Xrotation Yrotation
                    End Site
                    {
                        OFFSET   0.000000   0.000000   3.913200
                    }
                }
            }
        }
    }
    JOINT RightHip
    {
        OFFSET  -9.783040   0.000000   0.000000
        CHANNELS 3 Zrotation Xrotation Yrotation
        JOINT RightKnee
        {
            OFFSET   0.000047 -41.789100  -0.000896
            CHANNELS 3 Zrotation Xrotation Yrotation
            JOINT RightAnkle
            {
                OFFSET  -0.000117 -41.133300  -0.000248
                CHANNELS 3 Zrotation Xrotation Yrotation
                JOINT RightToe
                {
                    OFFSET   0.000000  -6.358970  14.674500
                    CHANNELS 3 Zrotation Xrotation Yrotation
                    End Site
                    {
                        OFFSET   0.000000   0.000000   3.913200
                    }
                }
            }
        }
    }
}
MOTION
Frames: 4
Frame Time:   0.016667
  0.665245  89.538800   0.970521  -2.444300  -8.012290  -2.141270   0.421738   3.966780  -0.162515   0.857886   7.932220  -0.355671  -0.385837  -1.574160  -0.004905  -0.628311  -3.191660   3.273420  -4.457640  -2.276530   1.998610 -74.338700  11.611800  -0.140940  -1.017190  -1.725430 -13.515000  10.979900  -2.517420  -0.309550  38.414100  27.755100 -56.668900 -29.260400   0.000000   0.000000  -9.630180  -0.001610  -0.002478 -28.296200   4.900130  -9.015710 -23.467700  -0.002677  -0.005848 -16.430300  -0.001831  -0.002277 -28.325300   0.007530  -0.018486 -34.440500  -0.001490  -0.000112 -22.937400  -0.004834  -0.001224 -27.781500   0.007390  -0.018583 -30.600200  -0.000548   0.000720 -20.379700  -0.000529  -0.000825 -28.972800  -1.067070   1.926190 -43.487600  -0.001039   0.000574 -28.963700  -0.000935  -0.003644  10.267100  -0.422646   2.791700  72.126100   3.565100  -5.484140  -0.534502  -8.319180   9.352630  -9.106340  -3.744270   3.287900 -46.518100  34.087500  71.834600  15.155500  -0.003055   0.000886   2.577730  -0.001629   0.006136  31.220600  10.717300  17.056900  26.862800   0.003086   0.004918  18.804000  -0.003893   0.003997  28.035100   4.658860   8.672610  35.003400  -0.007962  -0.002130  23.312300   0.002850   0.004970  27.218400   3.400050   6.577620  28.789500   0.009565  -0.004174  19.173800   0.008778   0.009304  32.137100   0.854146   1.359350  48.220800  -0.007405   0.007021  32.115000  -0.006115   0.000157   0.884571  10.788800  -1.237570   0.320910  -0.001728  11.123000   0.842756  -3.420920  -0.526375   0.000000   0.000000  -0.000000   3.668060   9.580820  -2.157430  -0.267332   1.765550 -13.819200  -1.320590  -4.413420   3.520900  -0.000000   0.000000   0.000000
  0.670410  89.538800   0.958328  -2.443940  -8.020420  -2.136510   0.421763   3.976070  -0.162562   0.857972   7.950830  -0.355864  -0.381047  -1.584410  -0.004906  -0.623510  -3.212360   3.273460  -4.457390  -2.276370   2.004870 -74.338800  11.613800  -0.142147  -1.023450  -1.727420 -13.509900  10.989200  -2.501540  -0.296097  38.395100  27.751600 -56.664900 -29.294300   0.000000   0.000030  -9.647160  -0.001594  -0.002478 -28.303800   4.914060  -9.038730 -23.475200  -0.002685  -0.005852 -16.430300  -0.001824  -0.002281 -28.325300   0.010868  -0.022696 -34.455200  -0.001488  -0.000111 -22.947200  -0.004830  -0.001220 -27.781500   0.010667  -0.022816 -30.614600  -0.000545   0.000721 -20.389600  -0.000530  -0.000822 -28.973400  -1.058430   1.910560 -43.487600  -0.001036   0.000576 -28.963700  -0.000935  -0.003638  10.266900  -0.423116   2.802320  72.120300   3.574810  -5.484200  -0.524912  -8.319240   9.358130  -9.121310  -3.726590   3.281560 -46.558100  34.119000  71.870100  15.121700  -0.003050   0.000890   2.560840  -0.001629   0.006135  31.263800  10.718300  17.035000  26.896200   0.003085   0.004916  18.827400  -0.003888   0.003995  28.042000   4.663800   8.679170  35.075900  -0.007962  -0.002137  23.360600   0.002854   0.004969  27.228400   3.410850   6.595540  28.841500   0.009566  -0.004179  19.208500   0.008779   0.009300  32.199900   0.841742   1.336360  48.314600  -0.007404   0.007019  32.177500  -0.006117   0.000154   0.878524  10.777600  -1.237510   0.319593   0.019915  11.116000   0.842426  -3.424540  -0.526343  -0.000000   0.000000   0.000000   3.675120   9.580870  -2.137560  -0.280184   1.772550 -13.830700  -1.315600  -4.410520   3.504750   0.000000   0.000000   0.000000
  0.678408  89.538700   0.937626  -2.443340  -8.033450  -2.128620   0.421806   3.991870  -0.162610   0.858140   7.982440  -0.356068  -0.372419  -1.600360  -0.004908  -0.613146  -3.244640   3.273360  -4.457120  -2.276200   2.011210 -74.338100  11.623900  -0.147151  -1.034110  -1.737630 -13.497400  10.998600  -2.477870  -0.282644  38.372700  27.746300 -56.659500 -29.328300   0.000000   0.000078  -9.664140  -0.001560  -0.002477 -28.309100   4.935230  -9.074250 -23.482700  -0.002693  -0.005860 -16.430200  -0.001809  -0.002294 -28.325300   0.017781  -0.032972 -34.476000  -0.001486  -0.000109 -22.961000  -0.004814  -0.001210 -27.781500   0.017455  -0.033145 -30.635100  -0.000543   0.000723 -20.403000  -0.000532  -0.000812 -28.974400  -1.044010   1.884500 -43.487500  -0.001033   0.000578 -28.963700  -0.000936  -0.003621  10.266900  -0.426425   2.818390  72.111600   3.593120  -5.484300  -0.508792  -8.319300   9.366190  -9.140800  -3.699440   3.275180 -46.597600  34.158300  71.901900  15.061900  -0.003042   0.000894   2.530920  -0.001631   0.006132  31.307000  10.719400  17.013100  26.929700   0.003084   0.004913  18.850800  -0.003880   0.003987  28.052200   4.681070   8.707060  35.198100  -0.007962  -0.002151  23.442000   0.002862   0.004965  27.245300   3.438500   6.643690  28.935600   0.009570  -0.004194  19.271200   0.008781   0.009293  32.294300   0.823069   1.301860  48.455500  -0.007401   0.007014  32.271300  -0.006126   0.000143   0.869031  10.756200  -1.237410   0.317793   0.055820  11.105200   0.842109  -3.428150  -0.526110  -0.000000   0.000000   0.000000   3.687660   9.580520  -2.104330  -0.302277   1.783190 -13.849700  -1.307670  -4.404580   3.477760   0.000000   0.000000  -0.000000
  0.683607  89.538600   0.920210  -2.442810  -8.042540  -2.122330   0.421867   4.005220  -0.162499   0.858311   8.009080  -0.355938  -0.364016  -1.610970  -0.004915  -0.599700  -3.266340   3.267850  -4.457040  -2.277280   2.011300 -74.334700  11.648600  -0.159240  -1.043070  -1.763220 -13.477100  10.993400  -2.462560  -0.288785  38.376900  27.729800 -56.678100 -29.297700   0.000029   0.000111  -9.648850  -0.001519  -0.002436 -28.304800   4.948000  -9.096810 -23.481200  -0.002690  -0.005868 -16.430200  -0.001795  -0.002316 -28.325200   0.027268  -0.050289 -34.485500  -0.001489  -0.000109 -22.967400  -0.004785  -0.001193 -27.781500   0.026772  -0.050548 -30.644800  -0.000543   0.000724 -20.407000  -0.000533  -0.000794 -28.975200  -1.032140   1.863070 -43.487600  -0.001034   0.000577 -28.963700  -0.000937  -0.003593  10.268800  -0.437101   2.827900  72.106800   3.611500  -5.485550  -0.494854  -8.319340   9.369650  -9.146280  -3.679280   3.275590 -46.643700  34.177300  71.890600  14.991400  -0.003040   0.000856   2.495680  -0.001638   0.006129  31.302600  10.720200  17.014800  26.926500   0.003091   0.004910  18.848600  -0.003875   0.003972  28.056600   4.718040   8.772960  35.296100  -0.007961  -0.002166  23.507300   0.002867   0.004955  27.256700   3.490640   6.744580  29.021700   0.009575  -0.004220  19.328500   0.008783   0.009284  32.343900   0.813156   1.283760  48.529600  -0.007392   0.007009  32.320600  -0.006141   0.000125   0.863412  10.727100  -1.240840   0.317152   0.091218  11.098700   0.843318  -3.427240  -0.522266  -0.000000   0.000000  -0.000000   3.699120   9.577200  -2.078610  -0.321568   1.790450 -13.862500  -1.301770  -4.397470   3.454840  -0.000000   0.000000   0.000000
